<svg width="136" height="78" viewBox="0 0 136 78" fill="none" xmlns="http://www.w3.org/2000/svg">
<rect width="136" height="78" rx="20" fill="#F0EDED"/>
<path fill-rule="evenodd" clip-rule="evenodd" d="M133.84 68.5328C130.313 74.2157 124.016 77.9999 116.835 77.9999H105.603C105.51 77.6287 105.46 77.2402 105.46 76.84V48.46C105.46 45.8477 107.578 43.73 110.19 43.73H121.035C122.29 43.73 123.493 44.2283 124.38 45.1154L132.455 53.19C133.342 54.077 133.84 55.2801 133.84 56.5346V68.5328ZM112.555 60.285C111.249 60.285 110.19 61.3438 110.19 62.65C110.19 63.9561 111.249 65.015 112.555 65.015H126.745C128.051 65.015 129.11 63.9561 129.11 62.65C129.11 61.3438 128.051 60.285 126.745 60.285H112.555ZM110.19 72.11C110.19 70.8038 111.249 69.745 112.555 69.745H126.745C128.051 69.745 129.11 70.8038 129.11 72.11C129.11 73.4161 128.051 74.475 126.745 74.475H112.555C111.249 74.475 110.19 73.4161 110.19 72.11Z" fill="#848484"/>
</svg>
