<svg width="136" height="78" viewBox="0 0 136 78" fill="none" xmlns="http://www.w3.org/2000/svg">
<rect width="136" height="78" rx="20" fill="#F0EDED"/>
<path fill-rule="evenodd" clip-rule="evenodd" d="M136 54.8636C132.095 49.153 125.529 45.4054 118.089 45.4054C106.113 45.4054 96.4054 55.1134 96.4054 67.0888C96.4054 71.067 97.4767 74.795 99.3466 78H116C118.79 78 121.448 77.4285 123.861 76.3961L116.321 68.8566C115.852 68.3878 115.589 67.7519 115.589 67.0888V56.2471C115.589 54.8664 116.708 53.7471 118.089 53.7471C119.47 53.7471 120.589 54.8664 120.589 56.2471V66.0533L127.523 72.9873C127.795 73.259 127.991 73.5777 128.111 73.9173C132.906 70.2636 136 64.4932 136 58V54.8636Z" fill="#848484"/>
</svg>
